<svg version="1.1" id="Layer_1" xmlns="http://www.w3.org/2000/svg" xmlns:xlink="http://www.w3.org/1999/xlink" x="0px" y="0px"
	 width="100%" viewBox="0 0 1254 1254" enable-background="new 0 0 1254 1254" xml:space="preserve">
<path fill="#FEFEFE" opacity="1.000000" stroke="none" 
	d="
M1.000000,439.000000 
	C1.000000,292.666656 1.000000,146.833328 1.000000,1.000000 
	C419.000000,1.000000 837.000000,1.000000 1255.000000,1.000000 
	C1255.000000,419.000000 1255.000000,837.000000 1255.000000,1255.000000 
	C837.000000,1255.000000 419.000000,1255.000000 1.000000,1255.000000 
	C1.000000,983.166687 1.000000,711.333313 1.000000,439.000000 
M1106.147339,349.205658 
	C1106.067383,348.140076 1105.987549,347.074493 1106.078491,345.103302 
	C1105.722656,341.067780 1105.366943,337.032227 1105.135620,332.112000 
	C1104.463135,326.157715 1103.899536,320.188812 1103.101196,314.251434 
	C1095.811401,260.040863 1070.965820,215.753571 1027.851196,181.961655 
	C1002.481750,162.077850 973.748535,149.569809 941.360901,143.583450 
	C938.234680,143.106506 935.108459,142.629562 931.353027,141.916000 
	C930.908020,141.922424 930.462952,141.928848 929.314514,141.608063 
	C927.209961,141.413803 925.105469,141.219528 922.522400,140.837189 
	C922.354187,140.869980 922.185974,140.902786 921.311401,140.620316 
	C919.203186,140.450394 917.094910,140.280457 914.264954,139.895432 
	C913.515869,139.909668 912.766785,139.923889 911.266724,139.660645 
	C906.849121,139.454758 902.431580,139.248871 897.175720,138.854141 
	C895.462524,138.862015 893.749329,138.869873 891.268799,138.593735 
	C885.606689,138.433746 879.944641,138.135208 874.282471,138.133942 
	C712.489807,138.097931 550.697205,138.080505 388.904572,138.115921 
	C381.259216,138.117584 373.613953,138.631516 365.179443,138.755798 
	C364.116425,138.847412 363.053406,138.939011 361.319183,138.825424 
	C356.540497,139.199249 351.761841,139.573074 346.239502,139.830292 
	C345.497040,139.922974 344.754608,140.015656 343.210815,139.947861 
	C341.132294,140.271545 339.053741,140.595245 336.230408,140.827560 
	C335.493164,140.942139 334.755920,141.056732 333.288910,141.010025 
	C331.853790,141.321487 330.418671,141.632950 328.138458,141.877548 
	C296.199951,146.396652 266.329010,156.613907 239.867355,175.334000 
	C174.679657,221.450577 151.582993,287.128632 152.726761,364.907166 
	C152.695145,367.571777 152.636246,370.236359 152.635803,372.900970 
	C152.611099,519.628418 152.575089,666.355896 152.587616,813.083313 
	C152.589615,836.391724 152.812241,859.700073 152.690033,883.917908 
	C154.463501,904.300964 154.878952,924.913940 158.284241,945.020630 
	C166.139435,991.402344 187.742096,1030.638794 223.817719,1061.326782 
	C246.990707,1081.039062 273.320526,1094.844849 303.623779,1102.407471 
	C307.427216,1103.201538 311.230652,1103.995605 315.656403,1105.031738 
	C316.099335,1105.042603 316.542267,1105.053467 317.629272,1105.424316 
	C327.415283,1106.601929 337.201294,1107.779663 347.641693,1109.130249 
	C348.089935,1109.105957 348.538208,1109.081665 349.736053,1109.350342 
	C355.489685,1109.565308 361.243347,1109.780273 367.814178,1110.163330 
	C369.200592,1110.148071 370.586975,1110.132935 372.739594,1110.396973 
	C377.736633,1110.502930 382.733704,1110.701172 387.730743,1110.701538 
	C549.181946,1110.714722 710.633179,1110.714478 872.084412,1110.680298 
	C877.400146,1110.679077 882.715759,1110.304443 888.852966,1110.247925 
	C890.236572,1110.160522 891.620178,1110.073120 893.726501,1110.208618 
	C899.159790,1109.836792 904.593018,1109.464966 910.689453,1109.195068 
	C911.128418,1109.122803 911.567322,1109.050415 912.674683,1109.175781 
	C920.455261,1108.137817 928.235901,1107.099976 936.520813,1106.137451 
	C936.680115,1106.078247 936.839478,1106.019165 937.698364,1106.099487 
	C938.812439,1105.779175 939.926514,1105.458862 941.538086,1105.179688 
	C941.538086,1105.179688 942.002014,1104.995361 942.813232,1105.117676 
	C945.548279,1104.434326 948.283325,1103.750854 951.813660,1103.078003 
	C974.893921,1097.740967 996.485229,1088.800049 1016.128296,1075.556641 
	C1078.714722,1033.360718 1104.038940,972.101929 1106.213989,898.219543 
	C1106.463379,887.727966 1106.928223,877.236511 1106.929688,866.744873 
	C1106.953125,703.976868 1106.931519,541.208862 1106.856079,378.440887 
	C1106.851685,368.960083 1106.302246,359.479553 1106.147339,349.205658 
z"/>
<path fill="#121A2E" opacity="1.000000" stroke="none" 
	d="
M371.973389,1110.117676 
	C370.586975,1110.132935 369.200592,1110.148071 367.163086,1109.801880 
	C360.711700,1107.410400 354.913757,1105.274292 348.986450,1109.057373 
	C348.538208,1109.081665 348.089935,1109.105957 347.135681,1108.738770 
	C344.609711,1107.680664 342.626007,1106.622070 340.562012,1106.431274 
	C336.613403,1106.066162 332.571533,1106.543091 328.658997,1106.007812 
	C325.584503,1105.587280 322.681946,1104.015381 319.621063,1103.311401 
	C318.914185,1103.148926 317.872681,1104.441406 316.985199,1105.064331 
	C316.542267,1105.053467 316.099335,1105.042603 315.306885,1104.521484 
	C311.426178,1100.585205 307.093109,1102.011841 302.992126,1102.033813 
	C273.320526,1094.844849 246.990707,1081.039062 223.817719,1061.326782 
	C187.742096,1030.638794 166.139435,991.402344 158.284241,945.020630 
	C154.878952,924.913940 154.463501,904.300964 153.084930,883.462891 
	C153.662079,883.003479 153.844330,882.999084 154.315857,882.696045 
	C154.736069,880.918884 154.981537,879.440430 154.981689,877.961914 
	C154.999130,708.373962 155.001251,538.786072 154.957901,369.198120 
	C154.957458,367.466492 154.344254,365.734955 153.748230,363.998291 
	C153.300064,363.993317 153.120773,363.993439 152.941498,363.993561 
	C151.582993,287.128632 174.679657,221.450577 239.867355,175.334000 
	C266.329010,156.613907 296.199951,146.396652 328.742218,142.219574 
	C331.621796,144.512207 333.531738,145.233078 334.018677,141.171310 
	C334.755920,141.056732 335.493164,140.942139 336.797089,141.198166 
	C340.065399,143.292114 342.766266,145.012085 344.012146,140.108337 
	C344.754608,140.015656 345.497040,139.922974 346.874756,140.162766 
	C352.598724,142.596451 357.553558,143.374405 361.990387,139.030640 
	C363.053406,138.939011 364.116425,138.847412 365.831909,139.110535 
	C368.987000,139.965652 371.489624,140.466003 374.461365,140.977966 
	C544.955933,140.983826 714.981323,140.978058 885.397949,140.973709 
	C887.871460,140.275986 889.953796,139.576859 892.036133,138.877731 
	C893.749329,138.869873 895.462524,138.862015 897.821899,139.233337 
	C902.519348,142.863129 907.402466,142.980469 912.017700,139.938110 
	C912.766785,139.923889 913.515869,139.909668 914.648193,140.384125 
	C917.325439,144.763504 919.666443,143.419128 922.017761,140.935577 
	C922.185974,140.902786 922.354187,140.869980 922.916626,141.252228 
	C925.412292,145.115250 927.656921,144.981232 930.017944,141.935272 
	C930.462952,141.928848 930.908020,141.922424 931.692505,142.415253 
	C934.762024,146.159668 938.977539,146.588242 942.019714,143.929886 
	C973.748535,149.569809 1002.481750,162.077850 1027.851196,181.961655 
	C1070.965820,215.753571 1095.811401,260.040863 1103.101196,314.251434 
	C1103.899536,320.188812 1104.463135,326.157715 1104.781494,332.803284 
	C1103.970581,337.011627 1103.369507,340.521606 1103.195801,344.052612 
	C1103.166016,344.658783 1104.957520,345.354523 1105.907715,346.008911 
	C1105.987549,347.074493 1106.067383,348.140076 1105.796875,349.895264 
	C1104.967896,355.345886 1104.072998,360.106750 1104.071045,364.868011 
	C1103.999146,537.387146 1103.992065,709.906372 1104.092896,882.425476 
	C1104.096191,887.948364 1105.325684,893.470520 1105.983521,898.993042 
	C1104.038940,972.101929 1078.714722,1033.360718 1016.128296,1075.556641 
	C996.485229,1088.800049 974.893921,1097.740967 951.156006,1102.823730 
	C947.666260,1103.378052 944.834167,1104.186646 942.002014,1104.995361 
	C942.002014,1104.995361 941.538086,1105.179688 941.089294,1104.914673 
	C939.426636,1105.086426 938.212769,1105.523193 936.998901,1105.959961 
	C936.839478,1106.019165 936.680115,1106.078247 936.040161,1105.847412 
	C934.033203,1105.472290 932.501221,1105.266357 930.982361,1105.338135 
	C929.666809,1105.400146 928.372925,1105.926270 927.057617,1105.986206 
	C923.272888,1106.158813 919.456909,1105.979492 915.707336,1106.409912 
	C914.392700,1106.560791 913.235352,1108.082397 912.006226,1108.978027 
	C911.567322,1109.050415 911.128418,1109.122803 910.089600,1108.875000 
	C903.692017,1105.547241 898.300476,1107.219971 893.003784,1109.985718 
	C891.620178,1110.073120 890.236572,1110.160522 888.175293,1109.905762 
	C885.971619,1109.392090 884.445557,1109.220581 882.651978,1108.733276 
	C880.908875,1108.278320 879.433350,1108.017456 877.957764,1108.017334 
	C713.044617,1107.999634 548.131470,1107.998535 383.218292,1108.045898 
	C381.507355,1108.046387 379.796600,1108.699707 377.673798,1109.073120 
	C375.499023,1109.437866 373.736206,1109.777710 371.973389,1110.117676 
M877.292236,643.210022 
	C877.292236,643.210022 877.391907,643.240417 878.003357,642.999939 
	C881.672119,639.694885 885.340942,636.389832 889.433350,632.703125 
	C895.531128,643.217346 901.349792,653.424927 907.399963,663.493469 
	C908.302368,664.995300 910.570740,666.995972 911.711914,666.719788 
	C913.351074,666.322937 915.348999,664.252380 915.780762,662.539978 
	C918.417358,652.083679 920.654419,641.526733 923.365051,630.326782 
	C925.598083,620.888794 927.831116,611.450806 930.398743,601.333679 
	C931.047974,598.756409 931.713928,596.183228 932.343689,593.601196 
	C936.005737,578.586975 939.722046,563.585571 943.290771,548.549194 
	C945.210999,540.458984 940.763672,535.854309 932.733032,537.367249 
	C931.589966,537.582581 930.441284,537.768372 929.298645,537.985779 
	C911.856445,541.303284 894.414795,544.623840 876.132141,547.884949 
	C857.306580,551.302795 838.466858,554.646790 819.678772,558.259521 
	C817.918091,558.598022 815.718079,560.366211 815.161255,561.970276 
	C814.777771,563.075012 816.517334,565.573059 817.929871,566.540833 
	C828.918152,574.069031 840.090637,581.327942 851.096069,588.831665 
	C852.139099,589.542786 852.427307,591.361023 852.529968,592.922546 
	C844.663696,600.241272 836.797424,607.559937 828.310791,615.141357 
	C815.894592,626.480591 803.478455,637.819824 790.471436,649.441772 
	C778.609192,660.223389 766.746887,671.005066 754.295593,682.117920 
	C739.384033,695.686401 724.472534,709.254883 708.955200,723.050964 
	C707.477478,724.385132 705.862122,725.597473 704.550354,727.078613 
	C701.698669,730.298462 699.248047,730.348816 695.872681,727.400024 
	C688.743286,721.171570 681.329346,715.253601 673.841492,709.454407 
	C663.266296,701.264038 652.910217,692.695496 641.729492,685.410339 
	C631.489624,678.738098 609.328125,680.563843 600.896362,691.027832 
	C586.132080,702.965271 571.367859,714.902710 556.022888,727.113525 
	C544.933472,736.038635 533.844055,744.963745 522.150146,754.155640 
	C513.144043,761.241638 504.170166,768.369324 495.094635,775.365234 
	C493.841125,776.331421 492.084351,776.644836 490.891968,776.579773 
	C534.668762,698.436829 578.421875,620.280579 622.331909,542.212585 
	C623.704529,539.772156 626.583069,536.914001 628.971069,536.708496 
	C630.889465,536.543335 633.797058,539.727661 635.125366,542.071838 
	C654.899475,576.968811 674.482422,611.974060 694.113220,646.952332 
	C699.623169,656.769775 705.141724,666.582397 710.891663,676.816040 
	C736.603088,653.769653 761.850098,631.139648 786.920410,608.668030 
	C749.196533,539.991455 711.968384,471.549042 674.064575,403.482819 
	C653.765991,367.031403 603.989014,367.360352 583.385193,403.700531 
	C563.349304,439.039124 543.690796,474.592102 523.927917,510.085083 
	C484.171600,581.485107 444.436920,652.897156 404.732971,724.326294 
	C382.577240,764.185425 360.448090,804.059570 338.424591,843.991821 
	C332.492798,854.747009 337.623749,864.726562 349.476440,864.838440 
	C377.633423,865.104187 405.795593,864.819519 434.866211,864.968323 
	C440.184998,864.991333 445.503876,865.048279 450.822510,865.031128 
	C468.429230,864.974365 483.979980,859.303406 497.570129,848.078857 
	C509.477905,838.243835 521.566467,828.627502 533.454224,818.768738 
	C538.508606,814.577026 543.254456,810.013306 548.858765,805.473755 
	C551.446045,803.414307 554.033386,801.354919 557.193970,799.052429 
	C559.898132,796.656067 562.602234,794.259705 565.963257,791.541931 
	C574.750305,784.434692 583.537292,777.327454 592.939697,769.984741 
	C595.150146,768.061096 597.360596,766.137451 600.081787,764.053284 
	C600.738708,763.440735 601.395691,762.828186 602.700745,761.984131 
	C610.329590,755.921448 617.958435,749.858704 625.687012,743.716675 
	C633.965027,750.295837 641.964722,756.653809 650.281677,763.576965 
	C651.492859,764.467773 652.704041,765.358521 654.248047,766.782043 
	C655.743958,767.880371 657.239807,768.978638 659.105347,770.655640 
	C666.077332,776.263245 672.553833,782.679077 680.120056,787.317322 
	C698.290527,798.456116 716.997620,794.081360 732.653687,775.825256 
	C752.133667,757.954956 771.613647,740.084717 791.701111,721.911194 
	C806.514099,708.297363 821.327148,694.683533 836.744080,680.801025 
	C846.156921,672.180176 855.600342,663.592102 864.957153,654.910950 
	C866.862427,653.143250 868.442261,651.024902 870.724426,649.005493 
	C871.101135,648.654236 871.477905,648.302979 872.441040,647.922363 
	C873.661499,646.779907 874.881958,645.637512 876.660034,644.192322 
	C876.852722,643.835205 877.045410,643.478088 877.292236,643.210022 
M831.315613,731.820007 
	C812.247009,749.185486 793.178345,766.550903 774.006897,784.009949 
	C787.036682,807.586487 800.071594,830.769348 812.665710,854.189209 
	C816.814697,861.904663 822.652405,865.092346 831.183167,865.030884 
	C855.510437,864.855408 879.839783,864.976379 904.168335,864.970215 
	C918.583435,864.966553 924.282776,855.797180 917.448547,843.220398 
	C897.981506,807.395935 878.392578,771.637695 858.826538,735.867188 
	C855.346497,729.505127 851.745789,723.208984 848.037598,716.591125 
	C842.388733,721.738342 837.115234,726.543640 831.315613,731.820007 
z"/>
<path fill="#272A3A" opacity="1.000000" stroke="none" 
	d="
M1106.098755,898.606323 
	C1105.325684,893.470520 1104.096191,887.948364 1104.092896,882.425476 
	C1103.992065,709.906372 1103.999146,537.387146 1104.071045,364.868011 
	C1104.072998,360.106750 1104.967896,355.345886 1105.726440,350.291870 
	C1106.302246,359.479553 1106.851685,368.960083 1106.856079,378.440887 
	C1106.931519,541.208862 1106.953125,703.976868 1106.929688,866.744873 
	C1106.928223,877.236511 1106.463379,887.727966 1106.098755,898.606323 
z"/>
<path fill="#2A2D40" opacity="1.000000" stroke="none" 
	d="
M891.652466,138.735733 
	C889.953796,139.576859 887.871460,140.275986 885.101562,140.679047 
	C882.937378,140.245819 881.460693,139.988678 879.984009,139.988510 
	C713.049988,139.970367 546.115967,139.968369 379.181976,140.012543 
	C377.451965,140.013000 375.722137,140.634689 373.992218,140.966354 
	C371.489624,140.466003 368.987000,139.965652 366.226532,139.186096 
	C373.613953,138.631516 381.259216,138.117584 388.904572,138.115921 
	C550.697205,138.080505 712.489807,138.097931 874.282471,138.133942 
	C879.944641,138.135208 885.606689,138.433746 891.652466,138.735733 
z"/>
<path fill="#363847" opacity="1.000000" stroke="none" 
	d="
M882.919495,1109.049072 
	C884.445557,1109.220581 885.971619,1109.392090 887.764526,1109.833740 
	C882.715759,1110.304443 877.400146,1110.679077 872.084412,1110.680298 
	C710.633179,1110.714478 549.181946,1110.714722 387.730743,1110.701538 
	C382.733704,1110.701172 377.736633,1110.502930 372.356506,1110.257324 
	C373.736206,1109.777710 375.499023,1109.437866 378.132751,1109.087158 
	C546.975647,1109.067261 714.947571,1109.058228 882.919495,1109.049072 
z"/>
<path fill="#000010" opacity="1.000000" stroke="none" 
	d="
M152.834137,364.450378 
	C153.120773,363.993439 153.300064,363.993317 153.740326,364.466431 
	C154.009720,537.624695 154.018158,710.309631 154.026596,882.994629 
	C153.844330,882.999084 153.662079,883.003479 153.206329,883.008179 
	C152.812241,859.700073 152.589615,836.391724 152.587616,813.083313 
	C152.575089,666.355896 152.611099,519.628418 152.635803,372.900970 
	C152.636246,370.236359 152.695145,367.571777 152.834137,364.450378 
z"/>
<path fill="#363847" opacity="1.000000" stroke="none" 
	d="
M317.307251,1105.244385 
	C317.872681,1104.441406 318.914185,1103.148926 319.621063,1103.311401 
	C322.681946,1104.015381 325.584503,1105.587280 328.658997,1106.007812 
	C332.571533,1106.543091 336.613403,1106.066162 340.562012,1106.431274 
	C342.626007,1106.622070 344.609711,1107.680664 346.808502,1108.652344 
	C337.201294,1107.779663 327.415283,1106.601929 317.307251,1105.244385 
z"/>
<path fill="#363847" opacity="1.000000" stroke="none" 
	d="
M912.340454,1109.076904 
	C913.235352,1108.082397 914.392700,1106.560791 915.707336,1106.409912 
	C919.456909,1105.979492 923.272888,1106.158813 927.057617,1105.986206 
	C928.372925,1105.926270 929.666809,1105.400146 930.982361,1105.338135 
	C932.501221,1105.266357 934.033203,1105.472290 935.787964,1105.809814 
	C928.235901,1107.099976 920.455261,1108.137817 912.340454,1109.076904 
z"/>
<path fill="#363847" opacity="1.000000" stroke="none" 
	d="
M349.361267,1109.203857 
	C354.913757,1105.274292 360.711700,1107.410400 366.754456,1109.717773 
	C361.243347,1109.780273 355.489685,1109.565308 349.361267,1109.203857 
z"/>
<path fill="#363847" opacity="1.000000" stroke="none" 
	d="
M893.365112,1110.097168 
	C898.300476,1107.219971 903.692017,1105.547241 909.758057,1108.823975 
	C904.593018,1109.464966 899.159790,1109.836792 893.365112,1110.097168 
z"/>
<path fill="#2A2D40" opacity="1.000000" stroke="none" 
	d="
M361.654785,138.928040 
	C357.553558,143.374405 352.598724,142.596451 347.246582,140.221069 
	C351.761841,139.573074 356.540497,139.199249 361.654785,138.928040 
z"/>
<path fill="#2A2D40" opacity="1.000000" stroke="none" 
	d="
M911.642212,139.799377 
	C907.402466,142.980469 902.519348,142.863129 898.241028,139.327759 
	C902.431580,139.248871 906.849121,139.454758 911.642212,139.799377 
z"/>
<path fill="#272A3A" opacity="1.000000" stroke="none" 
	d="
M1105.993042,345.556091 
	C1104.957520,345.354523 1103.166016,344.658783 1103.195801,344.052612 
	C1103.369507,340.521606 1103.970581,337.011627 1104.719238,333.245636 
	C1105.366943,337.032227 1105.722656,341.067780 1105.993042,345.556091 
z"/>
<path fill="#2A2D40" opacity="1.000000" stroke="none" 
	d="
M941.690308,143.756668 
	C938.977539,146.588242 934.762024,146.159668 932.007080,142.533569 
	C935.108459,142.629562 938.234680,143.106506 941.690308,143.756668 
z"/>
<path fill="#363847" opacity="1.000000" stroke="none" 
	d="
M303.307953,1102.220703 
	C307.093109,1102.011841 311.426178,1100.585205 314.995728,1104.400391 
	C311.230652,1103.995605 307.427216,1103.201538 303.307953,1102.220703 
z"/>
<path fill="#2A2D40" opacity="1.000000" stroke="none" 
	d="
M921.664551,140.777954 
	C919.666443,143.419128 917.325439,144.763504 915.009033,140.491684 
	C917.094910,140.280457 919.203186,140.450394 921.664551,140.777954 
z"/>
<path fill="#2A2D40" opacity="1.000000" stroke="none" 
	d="
M343.611481,140.028107 
	C342.766266,145.012085 340.065399,143.292114 337.169495,141.243866 
	C339.053741,140.595245 341.132294,140.271545 343.611481,140.028107 
z"/>
<path fill="#363847" opacity="1.000000" stroke="none" 
	d="
M942.407593,1105.056519 
	C944.834167,1104.186646 947.666260,1103.378052 950.758423,1102.818359 
	C948.283325,1103.750854 945.548279,1104.434326 942.407593,1105.056519 
z"/>
<path fill="#2A2D40" opacity="1.000000" stroke="none" 
	d="
M929.666260,141.771667 
	C927.656921,144.981232 925.412292,145.115250 923.155884,141.346252 
	C925.105469,141.219528 927.209961,141.413803 929.666260,141.771667 
z"/>
<path fill="#2A2D40" opacity="1.000000" stroke="none" 
	d="
M333.653809,141.090668 
	C333.531738,145.233078 331.621796,144.512207 329.164764,142.253006 
	C330.418671,141.632950 331.853790,141.321487 333.653809,141.090668 
z"/>
<path fill="#363847" opacity="1.000000" stroke="none" 
	d="
M937.348633,1106.029785 
	C938.212769,1105.523193 939.426636,1105.086426 940.840576,1104.894043 
	C939.926514,1105.458862 938.812439,1105.779175 937.348633,1106.029785 
z"/>
<path fill="#FDFDFD" opacity="1.000000" stroke="none" 
	d="
M433.955688,864.757324 
	C405.795593,864.819519 377.633423,865.104187 349.476440,864.838440 
	C337.623749,864.726562 332.492798,854.747009 338.424591,843.991821 
	C360.448090,804.059570 382.577240,764.185425 404.732971,724.326294 
	C444.436920,652.897156 484.171600,581.485107 523.927917,510.085083 
	C543.690796,474.592102 563.349304,439.039124 583.385193,403.700531 
	C603.989014,367.360352 653.765991,367.031403 674.064575,403.482819 
	C711.968384,471.549042 749.196533,539.991455 786.920410,608.668030 
	C761.850098,631.139648 736.603088,653.769653 710.891663,676.816040 
	C705.141724,666.582397 699.623169,656.769775 694.113220,646.952332 
	C674.482422,611.974060 654.899475,576.968811 635.125366,542.071838 
	C633.797058,539.727661 630.889465,536.543335 628.971069,536.708496 
	C626.583069,536.914001 623.704529,539.772156 622.331909,542.212585 
	C578.421875,620.280579 534.668762,698.436829 490.486237,777.073242 
	C476.335175,802.274109 462.514801,826.940247 448.896759,851.717529 
	C445.444000,857.999573 440.832397,862.581482 433.955688,864.757324 
z"/>
<path fill="#FCFCFD" opacity="1.000000" stroke="none" 
	d="
M831.578674,731.584473 
	C837.115234,726.543640 842.388733,721.738342 848.037598,716.591125 
	C851.745789,723.208984 855.346497,729.505127 858.826538,735.867188 
	C878.392578,771.637695 897.981506,807.395935 917.448547,843.220398 
	C924.282776,855.797180 918.583435,864.966553 904.168335,864.970215 
	C879.839783,864.976379 855.510437,864.855408 831.183167,865.030884 
	C822.652405,865.092346 816.814697,861.904663 812.665710,854.189209 
	C800.071594,830.769348 787.036682,807.586487 774.006897,784.009949 
	C793.178345,766.550903 812.247009,749.185486 831.578674,731.584473 
z"/>
<path fill="#396BD6" opacity="1.000000" stroke="none" 
	d="
M601.480591,690.800293 
	C609.328125,680.563843 631.489624,678.738098 641.729492,685.410339 
	C652.910217,692.695496 663.266296,701.264038 673.841492,709.454407 
	C681.329346,715.253601 688.743286,721.171570 695.872681,727.400024 
	C699.248047,730.348816 701.698669,730.298462 704.550354,727.078613 
	C705.862122,725.597473 707.477478,724.385132 709.599243,723.079834 
	C710.338867,724.439941 710.949158,726.021851 710.443359,727.060120 
	C707.844238,732.395081 711.751038,739.533081 717.964783,739.986328 
	C716.707764,743.630859 716.841980,746.318787 720.350403,749.377686 
	C723.458252,752.087402 725.625244,755.893555 729.766296,757.589294 
	C730.336304,757.822693 730.819458,758.912415 730.879761,759.643921 
	C731.332275,765.131836 731.668518,770.629272 732.041138,776.123779 
	C716.997620,794.081360 698.290527,798.456116 680.120056,787.317322 
	C672.553833,782.679077 666.077332,776.263245 659.320679,770.339966 
	C660.971619,768.736816 663.593811,767.447266 663.591553,766.162231 
	C663.587158,763.621643 663.078430,760.786560 659.304016,759.924011 
	C652.013367,758.257996 646.736877,752.791992 647.108398,747.081665 
	C647.555054,740.215637 643.100647,736.338440 638.481934,733.583923 
	C630.217407,728.655029 622.858398,723.439453 620.369995,713.522217 
	C620.049927,712.246521 620.070801,710.548767 619.248047,709.803101 
	C617.303406,708.040710 613.863831,704.962646 612.931580,705.532043 
	C607.123413,709.079529 607.004028,705.337158 606.635254,701.378113 
	C606.452209,699.413696 606.115784,697.460144 606.007568,695.492920 
	C605.846558,692.567871 604.629150,690.784180 601.480591,690.800293 
z"/>
<path fill="#2D5ABD" opacity="1.000000" stroke="none" 
	d="
M434.410950,864.862793 
	C440.832397,862.581482 445.444000,857.999573 448.896759,851.717529 
	C462.514801,826.940247 476.335175,802.274109 490.320557,777.413574 
	C492.084351,776.644836 493.841125,776.331421 495.094635,775.365234 
	C504.170166,768.369324 513.144043,761.241638 522.791931,754.167358 
	C526.711609,756.268799 528.806641,758.122070 524.345764,761.578979 
	C520.714600,764.392883 521.263245,768.986694 522.644775,772.675232 
	C524.241638,776.938538 527.245361,773.303284 529.707092,773.174316 
	C531.892456,773.059875 534.130981,773.959167 536.346008,774.411011 
	C535.779724,775.951904 535.254456,777.509399 534.638977,779.030457 
	C533.048950,782.960266 534.185181,786.466003 537.196533,788.879028 
	C540.487305,791.515930 542.647644,789.641235 544.571045,786.284668 
	C546.570862,782.794861 549.502747,783.259766 551.084167,786.912354 
	C551.715637,788.370789 552.212097,789.887756 552.948975,791.855896 
	C550.127075,792.503906 547.775879,793.043884 545.178284,793.640442 
	C546.184937,797.710999 547.162720,801.664856 548.140503,805.618652 
	C543.254456,810.013306 538.508606,814.577026 533.454224,818.768738 
	C521.566467,828.627502 509.477905,838.243835 497.570129,848.078857 
	C483.979980,859.303406 468.429230,864.974365 450.822510,865.031128 
	C445.503876,865.048279 440.184998,864.991333 434.410950,864.862793 
z"/>
<path fill="#619CF5" opacity="1.000000" stroke="none" 
	d="
M930.064209,602.012878 
	C927.831116,611.450806 925.598083,620.888794 922.811340,630.674744 
	C921.442322,632.036560 920.817932,633.364319 919.772705,634.000061 
	C917.472168,635.399292 915.028992,636.689087 912.472290,637.433411 
	C911.976074,637.577820 910.658569,635.065857 909.792114,633.732300 
	C908.636230,631.953430 907.890076,629.745056 906.367920,628.400146 
	C902.703552,625.162292 898.651184,622.368103 894.826233,619.306335 
	C889.161987,614.772339 883.783691,609.840515 877.853271,605.693604 
	C873.714050,602.799194 868.844727,600.953735 864.319519,598.605103 
	C860.554810,596.651184 856.816101,594.647095 853.065918,592.665222 
	C852.427307,591.361023 852.139099,589.542786 851.096069,588.831665 
	C840.090637,581.327942 828.918152,574.069031 817.929871,566.540833 
	C816.517334,565.573059 814.777771,563.075012 815.161255,561.970276 
	C815.718079,560.366211 817.918091,558.598022 819.678772,558.259521 
	C838.466858,554.646790 857.306580,551.302795 876.729858,548.190247 
	C880.232849,550.658264 877.249512,552.035889 876.754333,553.847778 
	C875.937012,556.838257 874.871277,560.154846 875.500000,562.980225 
	C875.814270,564.392029 879.566223,565.484619 881.905396,565.878784 
	C884.406067,566.300171 886.239929,566.848694 885.955322,569.686401 
	C885.512817,574.098206 888.018127,575.847656 891.710449,577.122009 
	C895.261841,578.347839 899.148438,579.454773 901.969360,581.745056 
	C906.183838,585.166687 909.559021,589.612732 913.355652,593.561096 
	C916.953552,597.302673 920.023254,602.182861 926.663330,599.432129 
	C927.326782,599.157288 928.908630,601.099609 930.064209,602.012878 
z"/>
<path fill="#3D72DD" opacity="1.000000" stroke="none" 
	d="
M732.347412,775.974487 
	C731.668518,770.629272 731.332275,765.131836 730.879761,759.643921 
	C730.819458,758.912415 730.336304,757.822693 729.766296,757.589294 
	C725.625244,755.893555 723.458252,752.087402 720.350403,749.377686 
	C716.841980,746.318787 716.707764,743.630859 717.964783,739.986328 
	C711.751038,739.533081 707.844238,732.395081 710.443359,727.060120 
	C710.949158,726.021851 710.338867,724.439941 709.902222,722.966064 
	C724.472534,709.254883 739.384033,695.686401 754.746338,682.281494 
	C757.917419,686.677795 759.322266,692.720215 767.667297,689.908081 
	C764.120911,695.484497 761.220337,700.045471 758.319702,704.606506 
	C758.794983,705.088745 759.270203,705.570984 759.745483,706.053223 
	C761.388367,705.599243 763.011108,704.884216 764.679077,704.756042 
	C766.866150,704.588013 769.933167,704.035034 771.089294,705.186401 
	C772.643372,706.734253 773.068176,709.711365 773.358093,712.148682 
	C773.638916,714.509460 773.135132,716.963501 772.916260,720.280151 
	C775.616394,719.787842 777.990417,720.067566 779.213501,719.012695 
	C785.632019,713.476868 788.264343,715.866821 791.093628,722.214355 
	C771.613647,740.084717 752.133667,757.954956 732.347412,775.974487 
z"/>
<path fill="#3667D1" opacity="1.000000" stroke="none" 
	d="
M601.188477,690.914062 
	C604.629150,690.784180 605.846558,692.567871 606.007568,695.492920 
	C606.115784,697.460144 606.452209,699.413696 606.635254,701.378113 
	C607.004028,705.337158 607.123413,709.079529 612.931580,705.532043 
	C613.863831,704.962646 617.303406,708.040710 619.248047,709.803101 
	C620.070801,710.548767 620.049927,712.246521 620.369995,713.522217 
	C622.858398,723.439453 630.217407,728.655029 638.481934,733.583923 
	C643.100647,736.338440 647.555054,740.215637 647.108398,747.081665 
	C646.736877,752.791992 652.013367,758.257996 659.304016,759.924011 
	C663.078430,760.786560 663.587158,763.621643 663.591553,766.162231 
	C663.593811,767.447266 660.971619,768.736816 659.135864,770.050659 
	C657.239807,768.978638 655.743958,767.880371 654.077393,766.137085 
	C652.592651,764.665283 651.278503,763.838501 649.964355,763.011780 
	C641.964722,756.653809 633.965027,750.295837 625.687012,743.716675 
	C617.958435,749.858704 610.329590,755.921448 602.353882,761.698120 
	C600.185547,760.300964 598.433533,759.019043 596.482910,758.225159 
	C596.101257,758.069824 594.949646,759.806030 594.153198,760.669800 
	C595.797791,761.829468 597.439697,762.992859 599.092468,764.140625 
	C599.211548,764.223328 599.409729,764.192139 599.571106,764.213867 
	C597.360596,766.137451 595.150146,768.061096 592.312195,769.865601 
	C590.985901,766.484314 590.203552,763.368713 586.446655,762.077698 
	C585.533203,761.763794 585.051636,760.333008 584.244263,759.546265 
	C580.686157,756.078674 576.999512,752.738770 573.534912,749.181641 
	C572.183167,747.793701 571.293213,745.955994 570.192932,744.323120 
	C571.780273,744.151611 573.370117,743.999634 574.953613,743.798218 
	C575.520020,743.726196 576.071167,743.534424 578.410461,742.959534 
	C570.383972,737.026428 563.493774,731.933289 556.603577,726.840149 
	C571.367859,714.902710 586.132080,702.965271 601.188477,690.914062 
M590.485474,750.120789 
	C589.709473,748.838379 588.933411,747.555969 588.112549,746.199463 
	C585.691650,747.996826 584.436096,748.929016 581.721985,750.944092 
	C583.773010,752.258667 585.220764,753.431946 586.866394,754.154663 
	C587.956055,754.633301 589.329407,754.466125 590.575806,754.588074 
	C590.671570,753.303406 590.767395,752.018799 590.485474,750.120789 
z"/>
<path fill="#467CE6" opacity="1.000000" stroke="none" 
	d="
M791.397339,722.062744 
	C788.264343,715.866821 785.632019,713.476868 779.213501,719.012695 
	C777.990417,720.067566 775.616394,719.787842 772.916260,720.280151 
	C773.135132,716.963501 773.638916,714.509460 773.358093,712.148682 
	C773.068176,709.711365 772.643372,706.734253 771.089294,705.186401 
	C769.933167,704.035034 766.866150,704.588013 764.679077,704.756042 
	C763.011108,704.884216 761.388367,705.599243 759.745483,706.053223 
	C759.270203,705.570984 758.794983,705.088745 758.319702,704.606506 
	C761.220337,700.045471 764.120911,695.484497 767.667297,689.908081 
	C759.322266,692.720215 757.917419,686.677795 755.040894,682.115906 
	C766.746887,671.005066 778.609192,660.223389 790.924805,649.585815 
	C794.939941,652.901550 798.380493,656.226379 802.112183,659.183655 
	C804.127869,660.780945 806.506775,662.226318 808.954224,662.917480 
	C817.848999,665.429321 825.889099,669.075745 831.510010,676.878906 
	C832.699768,678.530579 834.578735,679.685852 836.140137,681.069702 
	C821.327148,694.683533 806.514099,708.297363 791.397339,722.062744 
z"/>
<path fill="#5893F2" opacity="1.000000" stroke="none" 
	d="
M852.797974,592.793884 
	C856.816101,594.647095 860.554810,596.651184 864.319519,598.605103 
	C868.844727,600.953735 873.714050,602.799194 877.853271,605.693604 
	C883.783691,609.840515 889.161987,614.772339 894.826233,619.306335 
	C898.651184,622.368103 902.703552,625.162292 906.367920,628.400146 
	C907.890076,629.745056 908.636230,631.953430 909.792114,633.732300 
	C910.658569,635.065857 911.976074,637.577820 912.472290,637.433411 
	C915.028992,636.689087 917.472168,635.399292 919.772705,634.000061 
	C920.817932,633.364319 921.442322,632.036560 922.641174,631.013000 
	C920.654419,641.526733 918.417358,652.083679 915.780762,662.539978 
	C915.348999,664.252380 913.351074,666.322937 911.711914,666.719788 
	C910.570740,666.995972 908.302368,664.995300 907.399963,663.493469 
	C901.349792,653.424927 895.531128,643.217346 889.433350,632.703125 
	C885.340942,636.389832 881.672119,639.694885 877.560242,642.760010 
	C875.868347,641.388428 874.580261,639.320984 873.381165,639.371338 
	C872.003113,639.429260 869.679993,641.303101 869.611328,642.494385 
	C869.509460,644.264526 871.026611,646.127930 871.854614,647.951660 
	C871.477905,648.302979 871.101135,648.654236 870.065430,649.013794 
	C865.882324,647.352417 862.464172,645.377563 858.801697,644.106873 
	C855.706421,643.033020 851.601868,643.793701 851.625061,638.665771 
	C851.627136,638.202026 850.867310,637.545715 850.317444,637.297363 
	C843.096313,634.035522 838.409180,628.369080 834.655518,621.583496 
	C833.261780,619.063965 830.868591,617.097351 828.931152,614.878662 
	C836.797424,607.559937 844.663696,600.241272 852.797974,592.793884 
z"/>
<path fill="#3261C8" opacity="1.000000" stroke="none" 
	d="
M556.313232,726.976807 
	C563.493774,731.933289 570.383972,737.026428 578.410461,742.959534 
	C576.071167,743.534424 575.520020,743.726196 574.953613,743.798218 
	C573.370117,743.999634 571.780273,744.151611 570.192932,744.323120 
	C571.293213,745.955994 572.183167,747.793701 573.534912,749.181641 
	C576.999512,752.738770 580.686157,756.078674 584.244263,759.546265 
	C585.051636,760.333008 585.533203,761.763794 586.446655,762.077698 
	C590.203552,763.368713 590.985901,766.484314 592.004517,769.983276 
	C583.537292,777.327454 574.750305,784.434692 565.558777,791.255859 
	C564.903992,788.348755 563.992310,787.196045 561.403076,789.092896 
	C560.238770,789.945740 558.934692,790.669617 557.596985,791.213013 
	C552.767639,793.174927 552.436157,795.716858 556.620667,799.295471 
	C554.033386,801.354919 551.446045,803.414307 548.499634,805.546204 
	C547.162720,801.664856 546.184937,797.710999 545.178284,793.640442 
	C547.775879,793.043884 550.127075,792.503906 552.948975,791.855896 
	C552.212097,789.887756 551.715637,788.370789 551.084167,786.912354 
	C549.502747,783.259766 546.570862,782.794861 544.571045,786.284668 
	C542.647644,789.641235 540.487305,791.515930 537.196533,788.879028 
	C534.185181,786.466003 533.048950,782.960266 534.638977,779.030457 
	C535.254456,777.509399 535.779724,775.951904 536.346008,774.411011 
	C534.130981,773.959167 531.892456,773.059875 529.707092,773.174316 
	C527.245361,773.303284 524.241638,776.938538 522.644775,772.675232 
	C521.263245,768.986694 520.714600,764.392883 524.345764,761.578979 
	C528.806641,758.122070 526.711609,756.268799 523.094116,754.033936 
	C533.844055,744.963745 544.933472,736.038635 556.313232,726.976807 
z"/>
<path fill="#6DA7F7" opacity="1.000000" stroke="none" 
	d="
M930.231506,601.673279 
	C928.908630,601.099609 927.326782,599.157288 926.663330,599.432129 
	C920.023254,602.182861 916.953552,597.302673 913.355652,593.561096 
	C909.559021,589.612732 906.183838,585.166687 901.969360,581.745056 
	C899.148438,579.454773 895.261841,578.347839 891.710449,577.122009 
	C888.018127,575.847656 885.512817,574.098206 885.955322,569.686401 
	C886.239929,566.848694 884.406067,566.300171 881.905396,565.878784 
	C879.566223,565.484619 875.814270,564.392029 875.500000,562.980225 
	C874.871277,560.154846 875.937012,556.838257 876.754333,553.847778 
	C877.249512,552.035889 880.232849,550.658264 877.150269,548.219604 
	C894.414795,544.623840 911.856445,541.303284 929.298645,537.985779 
	C930.441284,537.768372 931.589966,537.582581 932.733032,537.367249 
	C940.763672,535.854309 945.210999,540.458984 943.290771,548.549194 
	C939.722046,563.585571 936.005737,578.586975 932.343689,593.601196 
	C931.713928,596.183228 931.047974,598.756409 930.231506,601.673279 
z"/>
<path fill="#4F88EE" opacity="1.000000" stroke="none" 
	d="
M828.620972,615.010010 
	C830.868591,617.097351 833.261780,619.063965 834.655518,621.583496 
	C838.409180,628.369080 843.096313,634.035522 850.317444,637.297363 
	C850.867310,637.545715 851.627136,638.202026 851.625061,638.665771 
	C851.601868,643.793701 855.706421,643.033020 858.801697,644.106873 
	C862.464172,645.377563 865.882324,647.352417 869.789185,649.045105 
	C868.442261,651.024902 866.862427,653.143250 864.957153,654.910950 
	C855.600342,663.592102 846.156921,672.180176 836.442139,680.935425 
	C834.578735,679.685852 832.699768,678.530579 831.510010,676.878906 
	C825.889099,669.075745 817.848999,665.429321 808.954224,662.917480 
	C806.506775,662.226318 804.127869,660.780945 802.112183,659.183655 
	C798.380493,656.226379 794.939941,652.901550 791.220215,649.444458 
	C803.478455,637.819824 815.894592,626.480591 828.620972,615.010010 
z"/>
<path fill="#1B263A" opacity="1.000000" stroke="none" 
	d="
M154.315857,882.696045 
	C154.018158,710.309631 154.009720,537.624695 154.009186,364.471558 
	C154.344254,365.734955 154.957458,367.466492 154.957901,369.198120 
	C155.001251,538.786072 154.999130,708.373962 154.981689,877.961914 
	C154.981537,879.440430 154.736069,880.918884 154.315857,882.696045 
z"/>
<path fill="#1D263A" opacity="1.000000" stroke="none" 
	d="
M374.461365,140.977966 
	C375.722137,140.634689 377.451965,140.013000 379.181976,140.012543 
	C546.115967,139.968369 713.049988,139.970367 879.984009,139.988510 
	C881.460693,139.988678 882.937378,140.245819 884.710449,140.677643 
	C714.981323,140.978058 544.955933,140.983826 374.461365,140.977966 
z"/>
<path fill="#1D263A" opacity="1.000000" stroke="none" 
	d="
M882.651978,1108.733276 
	C714.947571,1109.058228 546.975647,1109.067261 378.544739,1109.062256 
	C379.796600,1108.699707 381.507355,1108.046387 383.218292,1108.045898 
	C548.131470,1107.998535 713.044617,1107.999634 877.957764,1108.017334 
	C879.433350,1108.017456 880.908875,1108.278320 882.651978,1108.733276 
z"/>
<path fill="#2D5ABD" opacity="1.000000" stroke="none" 
	d="
M556.907349,799.173950 
	C552.436157,795.716858 552.767639,793.174927 557.596985,791.213013 
	C558.934692,790.669617 560.238770,789.945740 561.403076,789.092896 
	C563.992310,787.196045 564.903992,788.348755 565.230347,791.416504 
	C562.602234,794.259705 559.898132,796.656067 556.907349,799.173950 
z"/>
<path fill="#4F88EE" opacity="1.000000" stroke="none" 
	d="
M872.147827,647.937012 
	C871.026611,646.127930 869.509460,644.264526 869.611328,642.494385 
	C869.679993,641.303101 872.003113,639.429260 873.381165,639.371338 
	C874.580261,639.320984 875.868347,641.388428 877.254517,642.880249 
	C877.391907,643.240417 877.292236,643.210022 876.965454,643.284180 
	C876.459961,643.737305 876.281189,644.116150 876.102417,644.495117 
	C874.881958,645.637512 873.661499,646.779907 872.147827,647.937012 
z"/>
<path fill="#3261C8" opacity="1.000000" stroke="none" 
	d="
M599.826416,764.133545 
	C599.409729,764.192139 599.211548,764.223328 599.092468,764.140625 
	C597.439697,762.992859 595.797791,761.829468 594.153198,760.669800 
	C594.949646,759.806030 596.101257,758.069824 596.482910,758.225159 
	C598.433533,759.019043 600.185547,760.300964 602.029785,761.813904 
	C601.395691,762.828186 600.738708,763.440735 599.826416,764.133545 
z"/>
<path fill="#396BD6" opacity="1.000000" stroke="none" 
	d="
M650.123047,763.294373 
	C651.278503,763.838501 652.592651,764.665283 653.911011,765.870728 
	C652.704041,765.358521 651.492859,764.467773 650.123047,763.294373 
z"/>
<path fill="#5893F2" opacity="1.000000" stroke="none" 
	d="
M876.381226,644.343689 
	C876.281189,644.116150 876.459961,643.737305 876.938416,643.239624 
	C877.045410,643.478088 876.852722,643.835205 876.381226,644.343689 
z"/>
<path fill="#3261C8" opacity="1.000000" stroke="none" 
	d="
M590.674316,750.427490 
	C590.767395,752.018799 590.671570,753.303406 590.575806,754.588074 
	C589.329407,754.466125 587.956055,754.633301 586.866394,754.154663 
	C585.220764,753.431946 583.773010,752.258667 581.721985,750.944092 
	C584.436096,748.929016 585.691650,747.996826 588.112549,746.199463 
	C588.933411,747.555969 589.709473,748.838379 590.674316,750.427490 
z"/>
</svg>